<svg width="167" height="26" viewBox="0 0 167 26" fill="none" xmlns="http://www.w3.org/2000/svg">
<g id="Logo">
<g id="Group 1">
<path id="Vector" fill-rule="evenodd" clip-rule="evenodd" d="M19.6562 15.7845C19.6562 21.9565 16.059 24.9998 9.81363 24.9998C3.68357 24.9998 0 22.0716 0 15.7845V1.45898H5.09399V15.7845C5.09399 19.0283 6.33109 20.7797 9.81363 20.7797C13.2961 20.7797 14.6196 19.2584 14.6196 15.7845V1.45898H19.6562V15.7845Z" fill="white"/>
<path id="Vector_2" fill-rule="evenodd" clip-rule="evenodd" d="M48.7829 1.45898L40.0337 24.4258H45.1561L46.9988 19.3734H55.5463L57.3305 24.4258H62.5965L53.9922 1.45898H48.7829ZM51.3153 7.20014H51.3726L54.2798 15.612H48.2071L51.3153 7.20014Z" fill="white"/>
<path id="Vector_3" fill-rule="evenodd" clip-rule="evenodd" d="M26.0743 4.67441C26.0743 2.72248 28.4344 1.94737 30.5066 1.94737C33.9021 1.94737 35.6868 3.72705 35.8596 7.14309L40.0322 6.65526C39.1115 2.40627 34.7081 1 30.3912 1C26.506 1 22.6781 3.52588 22.6781 7.54542C22.6781 15.555 36.9819 14.4065 36.9819 20.6935C36.9819 22.9327 35.1109 23.8512 32.118 23.8512C28.4344 23.8512 26.3333 21.009 26.0169 17.593L21.5557 18.0808C22.5918 22.6454 26.8514 24.9997 31.6 24.9997C35.9459 24.9997 40.4355 22.9899 40.4355 17.7941C40.4355 10.2436 26.0743 11.0765 26.0743 4.67441Z" fill="white"/>
</g>
<g id="Section title">
<path id="Vector_4" d="M161.243 19.0078H159.043L156.138 10.2754H158.372L160.135 16.4552H160.169L162.083 10.2754H164.266L161.243 19.0078Z" fill="white"/>
<path id="Vector_5" d="M151.702 19.2092C149.267 19.2092 147.79 17.4963 147.79 14.675C147.79 11.7866 149.267 10.0737 151.702 10.0737C154.121 10.0737 155.598 11.7866 155.598 14.675C155.598 17.4963 154.121 19.2092 151.702 19.2092ZM151.702 17.597C152.962 17.597 153.516 16.4215 153.516 14.675C153.516 12.9789 152.995 11.6859 151.702 11.6859C150.392 11.6859 149.872 12.9789 149.872 14.675C149.872 16.4215 150.426 17.597 151.702 17.597Z" fill="white"/>
<path id="Vector_6" d="M146.183 13.0796C146.183 14.8764 144.94 16.0687 142.69 16.0687C142.219 16.0687 141.816 16.0184 141.43 15.9344C141.195 16.0687 141.01 16.2703 141.01 16.4886C141.01 17.748 147.039 15.9008 147.039 19.4274C147.039 21.3082 145.158 22.0975 142.622 22.0975C140.355 22.0975 138.777 21.4593 138.777 20.0823C138.777 19.2762 139.264 18.7388 140.204 18.4198V18.3862C139.465 18.2015 139.163 17.748 139.163 17.1435C139.163 16.4718 139.6 15.9008 140.339 15.4474C139.583 14.9268 139.197 14.1039 139.197 13.0796C139.197 11.4003 140.473 10.0736 142.69 10.0736C143.714 10.0736 144.537 10.3591 145.125 10.8293C145.612 10.3255 146.283 9.95605 147.056 9.95605V11.6522C146.636 11.6522 146.267 11.7025 145.914 11.8369C146.099 12.2231 146.183 12.643 146.183 13.0796ZM144.319 13.1635C144.319 12.2231 143.731 11.585 142.69 11.585C141.648 11.585 141.061 12.2231 141.061 13.1635C141.061 14.1375 141.648 14.7253 142.69 14.7253C143.731 14.7253 144.319 14.1375 144.319 13.1635ZM145.074 19.7464C145.074 18.9068 144 18.7556 142.169 18.722C141.363 18.8564 140.641 19.1755 140.641 19.7968C140.641 20.4349 141.497 20.754 142.774 20.754C144.067 20.754 145.074 20.4349 145.074 19.7464Z" fill="white"/>
<path id="Vector_7" d="M137.228 19.0079H134.826V16.6064H137.228V19.0079Z" fill="white"/>
<path id="Vector_8" d="M133.146 11.7195L131.736 12.5927C131.232 11.837 130.678 11.6019 129.956 11.6019C129.217 11.6019 128.78 11.9546 128.78 12.5423C128.78 14.2216 133.432 13.0965 133.432 16.4887C133.432 18.2352 132.055 19.2092 130.023 19.2092C128.36 19.2092 127.386 18.6718 126.513 17.4459L127.974 16.4383C128.579 17.2948 129.049 17.681 130.04 17.681C130.947 17.681 131.45 17.278 131.45 16.6398C131.45 14.7758 126.832 16.0185 126.832 12.6599C126.832 11.1149 128.125 10.0737 129.956 10.0737C131.434 10.0737 132.441 10.5271 133.146 11.7195Z" fill="white"/>
<path id="Vector_9" d="M125.103 19.0076H123.071V6.9502H125.103V19.0076Z" fill="white"/>
<path id="Vector_10" d="M121.131 19.0077H119.132L118.981 18.0337C118.141 18.739 117.184 19.1756 116.11 19.1756C114.649 19.1756 113.742 18.2688 113.742 16.8078C113.742 15.6826 114.229 14.9269 115.186 14.3896C116.059 13.9026 117.403 13.5835 118.981 13.2812C119.082 12.1057 118.679 11.6187 117.554 11.6187C116.664 11.6187 116.076 11.9881 115.589 12.7606L114.128 11.8538C114.9 10.5607 116.126 10.0737 117.688 10.0737C119.938 10.0737 120.98 11.0645 120.98 13.1301V17.4291L121.131 19.0077ZM118.914 16.6734V14.5743C117.688 14.8262 117.033 14.9941 116.479 15.2964C116.042 15.5483 115.824 15.9849 115.824 16.5223C115.824 17.2108 116.244 17.6138 116.916 17.6138C117.638 17.6138 118.393 17.2612 118.914 16.6734Z" fill="white"/>
<path id="Vector_11" d="M108.768 19.2092C106.333 19.2092 104.855 17.4963 104.855 14.675C104.855 11.7866 106.333 10.0737 108.768 10.0737C111.186 10.0737 112.664 11.7866 112.664 14.675C112.664 17.4963 111.186 19.2092 108.768 19.2092ZM108.768 17.597C110.028 17.597 110.582 16.4215 110.582 14.675C110.582 12.9789 110.061 11.6859 108.768 11.6859C107.458 11.6859 106.938 12.9789 106.938 14.675C106.938 16.4215 107.492 17.597 108.768 17.597Z" fill="white"/>
<path id="Vector_12" d="M103.249 13.0796C103.249 14.8764 102.006 16.0687 99.7556 16.0687C99.2854 16.0687 98.8823 16.0184 98.4961 15.9344C98.261 16.0687 98.0763 16.2703 98.0763 16.4886C98.0763 17.748 104.105 15.9008 104.105 19.4274C104.105 21.3082 102.224 22.0975 99.6884 22.0975C97.4213 22.0975 95.8428 21.4593 95.8428 20.0823C95.8428 19.2762 96.3298 18.7388 97.2702 18.4198V18.3862C96.5313 18.2015 96.229 17.748 96.229 17.1435C96.229 16.4718 96.6656 15.9008 97.4045 15.4474C96.6488 14.9268 96.2626 14.1039 96.2626 13.0796C96.2626 11.4003 97.5389 10.0736 99.7556 10.0736C100.78 10.0736 101.603 10.3591 102.191 10.8293C102.678 10.3255 103.349 9.95605 104.122 9.95605V11.6522C103.702 11.6522 103.332 11.7025 102.98 11.8369C103.165 12.2231 103.249 12.643 103.249 13.0796ZM101.384 13.1635C101.384 12.2231 100.797 11.585 99.7556 11.585C98.7144 11.585 98.1266 12.2231 98.1266 13.1635C98.1266 14.1375 98.7144 14.7253 99.7556 14.7253C100.797 14.7253 101.384 14.1375 101.384 13.1635ZM102.14 19.7464C102.14 18.9068 101.065 18.7556 99.235 18.722C98.4289 18.8564 97.7068 19.1755 97.7068 19.7968C97.7068 20.4349 98.5633 20.754 99.8395 20.754C101.133 20.754 102.14 20.4349 102.14 19.7464Z" fill="white"/>
<path id="Vector_13" d="M94.8094 19.0077H92.811L92.6599 18.0337C91.8202 18.739 90.863 19.1756 89.7882 19.1756C88.3272 19.1756 87.4204 18.2688 87.4204 16.8078C87.4204 15.6826 87.9074 14.9269 88.8646 14.3896C89.7379 13.9026 91.0813 13.5835 92.6599 13.2812C92.7606 12.1057 92.3576 11.6187 91.2324 11.6187C90.3424 11.6187 89.7547 11.9881 89.2677 12.7606L87.8067 11.8538C88.5791 10.5607 89.805 10.0737 91.3668 10.0737C93.6171 10.0737 94.6582 11.0645 94.6582 13.1301V17.4291L94.8094 19.0077ZM92.5927 16.6734V14.5743C91.3668 14.8262 90.7119 14.9941 90.1577 15.2964C89.7211 15.5483 89.5028 15.9849 89.5028 16.5223C89.5028 17.2108 89.9226 17.6138 90.5943 17.6138C91.3164 17.6138 92.0721 17.2612 92.5927 16.6734Z" fill="white"/>
<path id="Vector_14" d="M86.2109 11.7195L84.8003 12.5927C84.2965 11.837 83.7423 11.6019 83.0202 11.6019C82.2813 11.6019 81.8447 11.9546 81.8447 12.5423C81.8447 14.2216 86.4964 13.0965 86.4964 16.4887C86.4964 18.2352 85.1194 19.2092 83.0874 19.2092C81.4249 19.2092 80.4509 18.6718 79.5776 17.4459L81.0386 16.4383C81.6432 17.2948 82.1134 17.681 83.1042 17.681C84.011 17.681 84.5148 17.278 84.5148 16.6398C84.5148 14.7758 79.8967 16.0185 79.8967 12.6599C79.8967 11.1149 81.1898 10.0737 83.0202 10.0737C84.498 10.0737 85.5056 10.5271 86.2109 11.7195Z" fill="white"/>
<path id="Vector_15" d="M78.1706 19.0078H76.2898V17.933C75.3494 18.7895 74.493 19.2093 73.4518 19.2093C72.4778 19.2093 71.7389 18.8231 71.3694 18.1346C71.1008 17.6979 71 17.127 71 16.0522V10.2754H73.0656V16.069C73.0656 17.0262 73.4518 17.4628 74.2411 17.4628C74.8288 17.4628 75.383 17.2109 76.1387 16.4888V10.2754H78.1706V19.0078Z" fill="white"/>
</g>
</g>
</svg>
